<svg version="1.1" id="Layer_1" xmlns="http://www.w3.org/2000/svg" x="0px" y="0px"
	 viewBox="0 0 180 180" style="enable-background:new 0 0 180 180;" xml:space="preserve">
<style type="text/css">
	.st0{fill:#122A68;}
	.st1{fill:#125B84;}
	.st2{fill:#FFFFFF;}
</style>
<g>
	<path class="st0" d="M26.4,153.4c-35.1-35.1-35.1-92,0-127.1s92.1-35.1,127.3,0s35.1,92,0,127.1S61.5,188.5,26.4,153.4z"/>
</g>
<g>
	<rect x="73.1" y="61.3" class="st1" width="32.4" height="9.5"/>
	<path class="st1" d="M152.5,153.9c-3,3-6.2,5.7-9.5,8.2v-61.6h-13.1v69.7c-3.1,1.6-6.3,2.9-9.5,4.1v-94H58.2v94
		c-3.2-1.2-6.4-2.6-9.5-4.1v-69.7H36.3v62c35.2,25.9,85.1,23,117-8.8"/>
</g>
<g>
	<path class="st2" d="M152.6,95.7c0-2.6-2.1-4.8-4.8-4.8h-17.9V75.5c0-2.6-2.1-4.8-4.8-4.8h-10.1V56.5c0-2.6-2.1-4.8-4.8-4.8H94.1
		v-30c0-2.6-2.1-4.8-4.8-4.8s-4.8,2.1-4.8,4.8v30H68.4c-2.6,0-4.8,2.1-4.8,4.8v14.3H53.5c-2.6,0-4.8,2.1-4.8,4.8V91H31.6
		c-2.6,0-4.8,2.1-4.8,4.8v58.8c3,2.9,6.2,5.6,9.5,8c0,0,0,0,0-0.1v-62h12.4v69.7c3.1,1.6,6.3,2.9,9.5,4.1v-94h62.1v94
		c3.2-1.2,6.4-2.6,9.5-4.1v-69.7H143v61.6c3.3-2.5,6.5-5.2,9.5-8.2V95.7z M105.5,70.8H73.1v-9.5h32.4V70.8z"/>
</g>
</svg>
